<svg width="639" height="654" viewBox="0 0 639 654" fill="none" xmlns="http://www.w3.org/2000/svg">
<path fill-rule="evenodd" clip-rule="evenodd" d="M380.003 33.5285C381.743 26.4467 388.897 22.1162 395.98 23.8561C400.16 24.8826 404.306 25.9912 408.419 27.1803C415.427 29.2062 419.464 36.5275 417.438 43.5329C415.411 50.5383 408.088 54.5749 401.081 52.5491C397.311 51.4591 393.509 50.4427 389.678 49.5017C382.594 47.7618 378.263 40.6103 380.003 33.5285ZM183.265 59.4107C186.79 65.7951 184.471 73.8275 178.084 77.3515C174.636 79.2543 171.23 81.2247 167.868 83.2608C161.629 87.0392 153.508 85.046 149.728 78.8088C145.949 72.5716 147.943 64.4523 154.181 60.6738C157.846 58.4542 161.56 56.3061 165.319 54.2314C171.706 50.7074 179.74 53.0262 183.265 59.4107ZM455.735 59.4107C459.26 53.0262 467.294 50.7074 473.681 54.2314C477.44 56.3061 481.154 58.4542 484.819 60.6739C491.058 64.4523 493.051 72.5716 489.272 78.8089C485.492 85.0461 477.371 87.0393 471.132 83.2608C467.77 81.2247 464.364 79.2543 460.916 77.3515C454.529 73.8275 452.21 65.7951 455.735 59.4107ZM116.848 104.07C121.902 109.328 121.735 117.687 116.474 122.739C113.636 125.466 110.852 128.249 108.125 131.087C103.071 136.345 94.7103 136.513 89.4502 131.46C84.1901 126.408 84.0227 118.049 89.0764 112.791C92.0477 109.699 95.0807 106.666 98.1735 103.696C103.434 98.6436 111.795 98.8109 116.848 104.07ZM522.152 104.07C527.206 98.8109 535.566 98.6436 540.827 103.696C543.919 106.666 546.952 109.699 549.924 112.791C554.977 118.049 554.81 126.408 549.55 131.46C544.29 136.513 535.929 136.345 530.875 131.087C528.148 128.249 525.364 125.466 522.526 122.739C517.266 117.687 517.098 109.328 522.152 104.07ZM64.1826 164.331C70.4215 168.11 72.4153 176.229 68.6358 182.466C66.5991 185.827 64.6282 189.233 62.7249 192.68C59.1999 199.064 51.1654 201.383 44.7792 197.859C38.3931 194.335 36.0736 186.303 39.5985 179.919C41.6738 176.16 43.8225 172.447 46.0427 168.783C49.8222 162.546 57.9437 160.553 64.1826 164.331ZM574.817 164.331C581.056 160.553 589.178 162.546 592.957 168.783C595.177 172.447 597.326 176.16 599.401 179.919C602.926 186.303 600.607 194.335 594.221 197.859C587.835 201.383 579.8 199.064 576.275 192.68C574.372 189.233 572.401 185.828 570.364 182.466C566.585 176.229 568.578 168.11 574.817 164.331ZM610.103 236.146C617.11 234.12 624.433 238.157 626.46 245.162C627.649 249.274 628.758 253.42 629.785 257.598C631.525 264.679 627.194 271.831 620.11 273.571C613.026 275.311 605.873 270.98 604.132 263.898C603.191 260.068 602.175 256.268 601.084 252.499C599.058 245.493 603.096 238.172 610.103 236.146ZM28.8971 236.146C35.9044 238.172 39.9422 245.493 37.9158 252.499C36.8255 256.268 35.8088 260.068 34.8676 263.898C33.1272 270.98 25.9738 275.311 18.8901 273.571C11.8064 271.831 7.4747 264.679 9.21508 257.598C10.2418 253.42 11.3508 249.274 12.5402 245.162C14.5666 238.157 21.8899 234.12 28.8971 236.146ZM625.469 314.668C632.762 314.523 638.792 320.317 638.936 327.608C638.979 329.753 639 331.903 639 334.058C639 336.212 638.979 338.362 638.936 340.507C638.792 347.798 632.762 353.592 625.469 353.447C618.176 353.303 612.381 347.275 612.526 339.984C612.565 338.013 612.585 336.038 612.585 334.058C612.585 332.077 612.565 330.102 612.526 328.131C612.381 320.84 618.176 314.812 625.469 314.668ZM13.5307 314.668C20.8237 314.812 26.6186 320.84 26.4741 328.131C26.435 330.102 26.4154 332.077 26.4154 334.058C26.4154 336.038 26.435 338.013 26.4741 339.984C26.6186 347.275 20.8237 353.303 13.5307 353.447C6.23778 353.592 0.208464 347.799 0.0638956 340.508C0.0213625 338.362 0 336.212 0 334.058C0 331.903 0.0213625 329.753 0.0638944 327.608C0.208462 320.317 6.23777 314.523 13.5307 314.668ZM18.8901 394.544C25.9738 392.804 33.1272 397.135 34.8676 404.217C35.8088 408.047 36.8255 411.847 37.9158 415.617C39.9422 422.622 35.9044 429.943 28.8971 431.969C21.8899 433.995 14.5666 429.958 12.5402 422.953C11.3508 418.841 10.2418 414.695 9.21508 410.518C7.4747 403.436 11.8064 396.284 18.8901 394.544ZM620.11 394.544C627.194 396.284 631.525 403.436 629.785 410.518C628.758 414.695 627.649 418.841 626.46 422.953C624.433 429.958 617.11 433.995 610.103 431.969C603.096 429.943 599.058 422.622 601.084 415.617C602.175 411.847 603.191 408.047 604.132 404.217C605.873 397.135 613.026 392.804 620.11 394.544ZM44.7792 470.256C51.1654 466.732 59.1999 469.051 62.7249 475.435C64.6282 478.883 66.5991 482.288 68.6357 485.649C72.4152 491.886 70.4215 500.005 64.1826 503.784C57.9437 507.562 49.8222 505.569 46.0427 499.332C43.8225 495.668 41.6738 491.955 39.5985 488.197C36.0736 481.812 38.3931 473.78 44.7792 470.256ZM594.221 470.256C600.607 473.78 602.926 481.812 599.401 488.197C597.326 491.955 595.177 495.668 592.957 499.332C589.178 505.569 581.056 507.562 574.817 503.784C568.578 500.005 566.585 491.886 570.364 485.649C572.401 482.288 574.372 478.883 576.275 475.435C579.8 469.051 587.835 466.732 594.221 470.256ZM89.4502 536.655C94.7103 531.603 103.071 531.77 108.125 537.029C110.852 539.866 113.636 542.649 116.474 545.376C121.734 550.428 121.902 558.787 116.848 564.046C111.795 569.304 103.434 569.472 98.1734 564.419C95.0807 561.449 92.0477 558.417 89.0763 555.325C84.0227 550.066 84.19 541.707 89.4502 536.655ZM549.55 536.655C554.81 541.707 554.977 550.066 549.924 555.325C546.952 558.417 543.919 561.449 540.827 564.419C535.566 569.472 527.205 569.304 522.152 564.046C517.098 558.787 517.266 550.428 522.526 545.376C525.364 542.649 528.148 539.866 530.875 537.029C535.929 531.77 544.29 531.603 549.55 536.655ZM149.728 589.306C153.508 583.069 161.629 581.076 167.868 584.854C171.23 586.891 174.636 588.861 178.084 590.764C184.471 594.288 186.79 602.32 183.265 608.704C179.74 615.089 171.706 617.408 165.319 613.884C161.56 611.809 157.846 609.661 154.181 607.441C147.942 603.663 145.949 595.544 149.728 589.306ZM489.272 589.306C493.051 595.544 491.057 603.663 484.819 607.441C481.154 609.661 477.44 611.809 473.681 613.884C467.294 617.408 459.26 615.089 455.735 608.705C452.21 602.32 454.529 594.288 460.916 590.764C464.364 588.861 467.77 586.891 471.132 584.854C477.371 581.076 485.492 583.069 489.272 589.306ZM221.562 624.582C223.589 617.577 230.912 613.54 237.919 615.566C241.689 616.656 245.491 617.672 249.322 618.613C256.406 620.353 260.737 627.505 258.997 634.587C257.257 641.669 250.103 645.999 243.02 644.259C238.84 643.233 234.693 642.124 230.581 640.935C223.573 638.909 219.536 631.588 221.562 624.582ZM417.438 624.582C419.464 631.588 415.427 638.909 408.419 640.935C404.306 642.124 400.16 643.233 395.98 644.259C388.897 645.999 381.743 641.669 380.003 634.587C378.263 627.505 382.594 620.353 389.678 618.613C393.509 617.672 397.311 616.656 401.081 615.566C408.088 613.54 415.411 617.577 417.438 624.582ZM300.105 639.945C300.25 632.654 306.279 626.86 313.572 627.005C315.543 627.044 317.519 627.063 319.5 627.063C321.481 627.063 323.457 627.044 325.428 627.005C332.721 626.86 338.75 632.654 338.895 639.945C339.04 647.236 333.245 653.263 325.952 653.408C323.806 653.45 321.655 653.472 319.5 653.472C317.345 653.472 315.194 653.45 313.048 653.408C305.755 653.263 299.96 647.236 300.105 639.945Z" fill="white"/>
<path fill-rule="evenodd" clip-rule="evenodd" d="M247.69 5.45768L269.839 32.0395L297.414 26.4868L259.735 3.01562L247.69 5.45768Z" fill="white"/>
<path fill-rule="evenodd" clip-rule="evenodd" d="M213.188 31.8675L228.665 53.8772L348.461 30.3787C348.461 30.3787 344.879 15.1317 322.5 19.5485L231.739 37.4536C231.739 37.4536 226.007 32.571 221.248 31.7047C216.489 30.8383 213.188 31.8675 213.188 31.8675Z" fill="white"/>
<path fill-rule="evenodd" clip-rule="evenodd" d="M273.149 40.806L261.204 80.4666L272.948 78.5531L305.028 34.4326L273.149 40.806Z" fill="white"/>
</svg>
