<svg width="197" height="50" viewBox="0 0 197 50" fill="none" xmlns="http://www.w3.org/2000/svg">
<rect y="0.46582" width="197" height="49.0696" rx="24.5348" fill="#F6F6F6"/>
<path d="M24.5349 12.0117L24.724 17.17C24.8763 21.3257 28.21 24.6594 32.3656 24.8117L37.5239 25.0007L32.3656 25.1898C28.21 25.3421 24.8763 28.6758 24.724 32.8315L24.5349 37.9897L24.3459 32.8315C24.1935 28.6758 20.8598 25.3421 16.7042 25.1898L11.5459 25.0007L16.7042 24.8117C20.8598 24.6594 24.1935 21.3257 24.3459 17.17L24.5349 12.0117Z" fill="#F6F6F6"/>
<path d="M59.3854 33.2275V16.4337H65.6831C66.9733 16.4337 68.0557 16.6742 68.9304 17.1553C69.8105 17.6364 70.4747 18.2978 70.923 19.1397C71.3768 19.9761 71.6036 20.9273 71.6036 21.9934C71.6036 23.0703 71.3768 24.027 70.923 24.8634C70.4693 25.6998 69.7996 26.3586 68.914 26.8396C68.0284 27.3152 66.9378 27.553 65.6421 27.553H61.4683V25.052H65.2321C65.9865 25.052 66.6043 24.9208 67.0854 24.6584C67.5664 24.396 67.9218 24.0352 68.1514 23.576C68.3864 23.1168 68.504 22.5892 68.504 21.9934C68.504 21.3975 68.3864 20.8727 68.1514 20.4189C67.9218 19.9652 67.5637 19.6126 67.0772 19.3611C66.5961 19.1042 65.9756 18.9757 65.2157 18.9757H62.4277V33.2275H59.3854ZM74.1149 33.2275V20.6321H77.0834V33.2275H74.1149ZM75.6073 18.8445C75.1372 18.8445 74.7327 18.6887 74.3937 18.3771C74.0548 18.06 73.8853 17.6801 73.8853 17.2373C73.8853 16.789 74.0548 16.4091 74.3937 16.0975C74.7327 15.7804 75.1372 15.6219 75.6073 15.6219C76.083 15.6219 76.4875 15.7804 76.821 16.0975C77.1599 16.4091 77.3294 16.789 77.3294 17.2373C77.3294 17.6801 77.1599 18.06 76.821 18.3771C76.4875 18.6887 76.083 18.8445 75.6073 18.8445ZM85.63 33.4735C84.3726 33.4735 83.2929 33.1975 82.3909 32.6453C81.4944 32.0932 80.8028 31.3306 80.3163 30.3575C79.8352 29.3789 79.5947 28.2528 79.5947 26.979C79.5947 25.6998 79.8407 24.5709 80.3327 23.5924C80.8247 22.6084 81.519 21.843 82.4155 21.2963C83.3175 20.7442 84.3835 20.4681 85.6136 20.4681C86.6358 20.4681 87.5406 20.6567 88.3278 21.0339C89.1205 21.4057 89.7519 21.9332 90.222 22.6166C90.6922 23.2944 90.96 24.0871 91.0256 24.9946H88.1884C88.0736 24.3878 87.8003 23.8821 87.3684 23.4776C86.942 23.0676 86.3707 22.8626 85.6546 22.8626C85.0477 22.8626 84.5147 23.0266 84.0555 23.3546C83.5963 23.6771 83.2383 24.1418 82.9813 24.7486C82.7298 25.3554 82.6041 26.0825 82.6041 26.9298C82.6041 27.7881 82.7298 28.5261 82.9813 29.1439C83.2328 29.7561 83.5854 30.229 84.0391 30.5625C84.4983 30.8905 85.0368 31.0545 85.6546 31.0545C86.0919 31.0545 86.4828 30.9725 86.8272 30.8085C87.177 30.639 87.4695 30.3958 87.7046 30.0787C87.9397 29.7616 88.1009 29.3762 88.1884 28.9225H91.0256C90.9546 29.8136 90.6922 30.6035 90.2384 31.2923C89.7847 31.9757 89.1669 32.5114 88.3852 32.8995C87.6035 33.2822 86.685 33.4735 85.63 33.4735ZM96.1692 29.2751L96.161 25.6916H96.6366L101.163 20.6321H104.632L99.0638 26.8314H98.4488L96.1692 29.2751ZM93.4631 33.2275V16.4337H96.4316V33.2275H93.4631ZM101.368 33.2275L97.268 27.4956L99.2688 25.4046L104.919 33.2275H101.368ZM104.695 18.9839V16.4337H118.094V18.9839H112.904V33.2275H109.886V18.9839H104.695ZM119.238 33.2275V20.6321H122.116V22.7314H122.248C122.477 22.0043 122.871 21.4439 123.428 21.0503C123.992 20.6513 124.634 20.4517 125.356 20.4517C125.52 20.4517 125.703 20.4599 125.905 20.4763C126.113 20.4873 126.285 20.5064 126.422 20.5337V23.2644C126.296 23.2206 126.096 23.1824 125.823 23.1496C125.555 23.1113 125.295 23.0922 125.044 23.0922C124.503 23.0922 124.016 23.2097 123.584 23.4448C123.158 23.6744 122.822 23.9942 122.576 24.4042C122.33 24.8142 122.207 25.2871 122.207 25.8228V33.2275H119.238ZM128.394 33.2275V20.6321H131.362V33.2275H128.394ZM129.886 18.8445C129.416 18.8445 129.011 18.6887 128.672 18.3771C128.334 18.06 128.164 17.6801 128.164 17.2373C128.164 16.789 128.334 16.4091 128.672 16.0975C129.011 15.7804 129.416 15.6219 129.886 15.6219C130.362 15.6219 130.766 15.7804 131.1 16.0975C131.439 16.4091 131.608 16.789 131.608 17.2373C131.608 17.6801 131.439 18.06 131.1 18.3771C130.766 18.6887 130.362 18.8445 129.886 18.8445ZM134.415 37.9508V20.6321H137.334V22.715H137.506C137.659 22.4088 137.875 22.0836 138.154 21.7392C138.433 21.3893 138.81 21.0913 139.285 20.8453C139.761 20.5939 140.368 20.4681 141.106 20.4681C142.079 20.4681 142.956 20.7169 143.738 21.2143C144.525 21.7064 145.149 22.4362 145.608 23.4038C146.072 24.3659 146.305 25.5467 146.305 26.9462C146.305 28.3293 146.078 29.5047 145.624 30.4723C145.17 31.4399 144.553 32.1779 143.771 32.6863C142.989 33.1947 142.104 33.4489 141.114 33.4489C140.392 33.4489 139.794 33.3287 139.318 33.0881C138.843 32.8476 138.46 32.5579 138.17 32.2189C137.886 31.8745 137.665 31.5492 137.506 31.2431H137.383V37.9508H134.415ZM137.326 26.9298C137.326 27.7444 137.44 28.4578 137.67 29.0701C137.905 29.6823 138.241 30.1607 138.679 30.5051C139.121 30.844 139.657 31.0135 140.286 31.0135C140.942 31.0135 141.491 30.8386 141.934 30.4887C142.377 30.1334 142.71 29.6495 142.935 29.0373C143.164 28.4195 143.279 27.717 143.279 26.9298C143.279 26.1481 143.167 25.4538 142.943 24.847C142.719 24.2402 142.385 23.7646 141.942 23.4202C141.5 23.0758 140.947 22.9036 140.286 22.9036C139.652 22.9036 139.113 23.0703 138.67 23.4038C138.228 23.7373 137.891 24.2047 137.662 24.806C137.438 25.4073 137.326 26.1153 137.326 26.9298ZM156.862 33.2275H153.615L159.528 16.4337H163.283L169.204 33.2275H165.956L161.471 19.8777H161.34L156.862 33.2275ZM156.969 26.6428H165.825V29.0865H156.969V26.6428ZM174.458 16.4337V33.2275H171.416V16.4337H174.458Z" fill="url(#paint0_linear_6244_16022)"/>
<rect x="5.77246" y="4.07324" width="41.8535" height="41.8535" rx="20.9267" fill="url(#paint1_linear_6244_16022)"/>
<path d="M26.699 12.0107L26.888 17.169C27.0403 21.3247 30.374 24.6584 34.5297 24.8107L39.688 24.9998L34.5297 25.1888C30.374 25.3411 27.0403 28.6748 26.888 32.8305L26.699 37.9888L26.5099 32.8305C26.3576 28.6748 23.0239 25.3411 18.8682 25.1888L13.71 24.9998L18.8682 24.8107C23.0239 24.6584 26.3576 21.3247 26.5099 17.169L26.699 12.0107Z" fill="#F6F6F6"/>
<defs>
<linearGradient id="paint0_linear_6244_16022" x1="74.354" y1="21.0805" x2="74.8682" y2="33.0476" gradientUnits="userSpaceOnUse">
<stop stop-color="#33A0EF"/>
<stop offset="1" stop-color="#9098DC"/>
</linearGradient>
<linearGradient id="paint1_linear_6244_16022" x1="11.6196" y1="10.5359" x2="26.6992" y2="45.9267" gradientUnits="userSpaceOnUse">
<stop stop-color="#33A0EF"/>
<stop offset="1" stop-color="#9098DC"/>
</linearGradient>
</defs>
</svg>
